# xmcd
#
# Track frame offsets: 
#        150
#        17987
#        35977
#        54685
#        70180
#        88037
#        105307
#        121010
#        137555
#        155980
#        174785
#        192927
#
# Disc length: 2765 seconds
#
# Revision: 7
# Processed by: cddbd v1.5.2PL0 Copyright (c) Steve Scherf et al.
# Submitted via: ExactAudioCopyFreeDBPlugin 1.0
#
DISCID=a10acb0c
DTITLE=John Mellencamp - John Mellencamp
DYEAR=1998
DGENRE=Rock
TTITLE0=Fruit Trader
TTITLE1=Your Life Is Now
TTITLE2=Positively Crazy
TTITLE3=I'm Not Running Anymore
TTITLE4=It All Comes True
TTITLE5=Eden Is Burning
TTITLE6=Where The World Began
TTITLE7=Miss Missy
TTITLE8=Chance Meeting At The Tarantula
TTITLE9=Break Me Off Some
TTITLE10=Summer Of Love
TTITLE11=Days Of Farewell
EXTD=YEAR: 1998
EXTT0=
EXTT1=
EXTT2=
EXTT3=
EXTT4=
EXTT5=
EXTT6=
EXTT7=
EXTT8=
EXTT9=
EXTT10=
EXTT11=
PLAYORDER=
